<svg id="Capa_1" enable-background="new 0 0 512 512" height="512" viewBox="0 0 512 512" width="512" xmlns="http://www.w3.org/2000/svg"><g><g><path d="m436 512h-360c-8.284 0-15-6.716-15-15v-92c0-46.869 38.131-85 85-85h220c46.869 0 85 38.131 85 85v92c0 8.284-6.716 15-15 15z" fill="#9ee2f8"/></g><path d="m451 497v-92c0-46.869-38.131-85-85-85h-110v192h180c8.284 0 15-6.716 15-15z" fill="#8bb9ff"/><path d="m216 275.534v19.466l40 80 40-80v-19.466z" fill="#ffcbbc"/><path d="m256 375 40-80v-19.466h-40z" fill="#ffbca7"/><g><g><path d="m256 300c-52.467 0-95-42.533-95-95v-56c0-38.66 31.34-70 70-70h105c8.284 0 15 6.716 15 15v111c0 52.467-42.533 95-95 95z" fill="#ffddce"/></g><path d="m336 79h-80v221c52.467 0 95-42.533 95-95v-111c0-8.284-6.716-15-15-15z" fill="#ffcbbc"/><g><path d="m182.83 328.17 33.17-33.17 40 80-33.848 27.078c-7.966 6.373-19.833 3.106-23.415-6.446l-19.346-51.588c-2.065-5.508-.721-11.714 3.439-15.874z" fill="#fff5f5"/><path d="m329.17 328.17-33.17-33.17-40 80 33.848 27.078c7.966 6.373 19.833 3.106 23.415-6.446l19.346-51.588c2.065-5.508.721-11.714-3.439-15.874z" fill="#e2dff4"/></g><path d="m387.821 13.181c-8.5-8.5-19.8-13.181-31.821-13.181h-120c-41.355 0-75 33.645-75 75v75h15.003c23.463 0 45.1-10.068 59.997-27.167 14.898 17.099 36.534 27.167 59.997 27.167 57.896 0 105-47.102 105.003-104.998.001-12.02-4.68-23.321-13.179-31.821z" fill="#0a789b"/><path d="m295.997 150c57.896 0 105-47.102 105.003-104.998.001-12.021-4.68-23.321-13.179-31.821s-19.8-13.181-31.821-13.181h-100v139.32c11.888 6.882 25.597 10.68 39.997 10.68z" fill="#0a617d"/></g></g></svg>